<svg width="29" height="12" viewBox="0 0 29 12" fill="none" xmlns="http://www.w3.org/2000/svg">
<rect y="0.404465" width="28.3444" height="11.05" rx="1" fill="#EE3E61"/>
<path d="M5.55767 2.76625V9.26925H6.49567V2.76625H5.55767ZM6.28567 5.16725V5.93025H7.43367V5.16725H6.28567ZM1.66567 6.93825V7.70825H2.21167C3.33867 7.70825 4.22767 7.68025 5.20767 7.50525L5.11667 6.73525C4.16467 6.90325 3.30367 6.93825 2.21167 6.93825H1.66567ZM1.66567 3.36825V7.30925H2.58967V4.11725H4.68967V3.36825H1.66567ZM12.2981 2.76625V9.26925H13.2361V2.76625H12.2981ZM9.74312 3.22125C8.76312 3.22125 8.04212 4.11725 8.04212 5.53125C8.04212 6.95925 8.76312 7.85525 9.74312 7.85525C10.7231 7.85525 11.4441 6.95925 11.4441 5.53125C11.4441 4.11725 10.7231 3.22125 9.74312 3.22125ZM9.74312 4.06825C10.2261 4.06825 10.5481 4.57925 10.5481 5.53125C10.5481 6.49725 10.2261 7.01525 9.74312 7.01525C9.26012 7.01525 8.93112 6.49725 8.93112 5.53125C8.93112 4.57925 9.26012 4.06825 9.74312 4.06825ZM16.0706 3.22125C15.0976 3.22125 14.3976 4.11725 14.3976 5.53125C14.3976 6.95925 15.0976 7.85525 16.0706 7.85525C17.0366 7.85525 17.7436 6.95925 17.7436 5.53125C17.7436 4.11725 17.0366 3.22125 16.0706 3.22125ZM16.0706 4.06825C16.5466 4.06825 16.8546 4.57925 16.8546 5.53125C16.8546 6.49725 16.5466 7.01525 16.0706 7.01525C15.6016 7.01525 15.2866 6.49725 15.2866 5.53125C15.2866 4.57925 15.6016 4.06825 16.0706 4.06825ZM18.8076 2.76625V9.26925H19.7316V2.76625H18.8076ZM17.4706 5.10425V5.85325H19.1996V5.10425H17.4706ZM25.198 2.76625V9.26925H26.129V2.76625H25.198ZM21.082 7.00125V7.75725H21.656C22.839 7.75725 23.791 7.72225 24.841 7.53325L24.75 6.78425C23.721 6.95925 22.804 7.00125 21.656 7.00125H21.082ZM21.075 3.31925V4.06125H23.182V5.09025H21.082V7.28125H22.027V5.82525H24.134V3.31925H21.075Z" fill="white"/>
</svg>
